<mxfile host="65bd71144e">
    <diagram id="x61G0DnH1ALblnrRs4Fd" name="Page-1">
        <mxGraphModel dx="1074" dy="749" grid="1" gridSize="10" guides="1" tooltips="1" connect="1" arrows="1" fold="1" page="1" pageScale="1" pageWidth="827" pageHeight="1169" math="0" shadow="0">
            <root>
                <mxCell id="0"/>
                <mxCell id="1" parent="0"/>
                <mxCell id="2" style="edgeStyle=none;html=1;exitX=0.5;exitY=1;exitDx=0;exitDy=0;" edge="1" parent="1" source="5" target="9">
                    <mxGeometry relative="1" as="geometry">
                        <Array as="points">
                            <mxPoint x="400" y="160"/>
                        </Array>
                    </mxGeometry>
                </mxCell>
                <mxCell id="3" style="edgeStyle=none;html=1;entryX=0.5;entryY=0;entryDx=0;entryDy=0;rounded=0;" edge="1" parent="1" target="11">
                    <mxGeometry relative="1" as="geometry">
                        <mxPoint x="400" y="160" as="sourcePoint"/>
                        <Array as="points">
                            <mxPoint x="590" y="160"/>
                        </Array>
                    </mxGeometry>
                </mxCell>
                <mxCell id="4" style="edgeStyle=none;rounded=0;html=1;entryX=0.5;entryY=0;entryDx=0;entryDy=0;" edge="1" parent="1" target="7">
                    <mxGeometry relative="1" as="geometry">
                        <mxPoint x="400" y="160" as="sourcePoint"/>
                        <Array as="points">
                            <mxPoint x="210" y="160"/>
                        </Array>
                    </mxGeometry>
                </mxCell>
                <mxCell id="5" value="surface_area_sphere" style="rounded=0;whiteSpace=wrap;html=1;" vertex="1" parent="1">
                    <mxGeometry x="340" y="70" width="120" height="60" as="geometry"/>
                </mxCell>
                <mxCell id="6" style="edgeStyle=none;rounded=0;html=1;" edge="1" parent="1" source="7" target="12">
                    <mxGeometry relative="1" as="geometry"/>
                </mxCell>
                <mxCell id="7" value="Input" style="rounded=0;whiteSpace=wrap;html=1;" vertex="1" parent="1">
                    <mxGeometry x="150" y="190" width="120" height="60" as="geometry"/>
                </mxCell>
                <mxCell id="8" style="edgeStyle=none;rounded=0;html=1;" edge="1" parent="1" source="9" target="14">
                    <mxGeometry relative="1" as="geometry"/>
                </mxCell>
                <mxCell id="9" value="Process" style="rounded=0;whiteSpace=wrap;html=1;" vertex="1" parent="1">
                    <mxGeometry x="340" y="190" width="120" height="60" as="geometry"/>
                </mxCell>
                <mxCell id="10" style="edgeStyle=none;rounded=0;html=1;" edge="1" parent="1" source="11" target="13">
                    <mxGeometry relative="1" as="geometry"/>
                </mxCell>
                <mxCell id="11" value="Output" style="rounded=0;whiteSpace=wrap;html=1;" vertex="1" parent="1">
                    <mxGeometry x="530" y="190" width="120" height="60" as="geometry"/>
                </mxCell>
                <mxCell id="12" value="Get radius" style="rounded=0;whiteSpace=wrap;html=1;" vertex="1" parent="1">
                    <mxGeometry x="150" y="280" width="120" height="60" as="geometry"/>
                </mxCell>
                <mxCell id="13" value="Show surface_area" style="rounded=0;whiteSpace=wrap;html=1;" vertex="1" parent="1">
                    <mxGeometry x="530" y="280" width="120" height="60" as="geometry"/>
                </mxCell>
                <mxCell id="14" value="surface_area =&amp;nbsp;&lt;font style=&quot;font-size: 12px&quot;&gt;&lt;div class=&quot;lr-fy-eq-elem&quot; style=&quot;display: inline-block ; position: relative ; transition: all 0.05s ease-in-out 0s ; color: rgb(32 , 33 , 36) ; font-family: &amp;#34;stixgeneral&amp;#34; , &amp;#34;georgia&amp;#34; ; background-color: rgb(255 , 255 , 255)&quot;&gt;&lt;div class=&quot;lr-fy-ecv lr-fy-eq-elem&quot; style=&quot;display: inline-block ; position: relative ; transition: all 0.05s ease-in-out 0s ; font-family: &amp;#34;stixgeneral&amp;#34; , &amp;#34;times&amp;#34; , &amp;#34;times new roman&amp;#34; , serif ; font-size: 12px&quot;&gt;4&lt;/div&gt;&lt;div class=&quot;lr-fy-eq-elem lr-fy-eq-add&quot; style=&quot;display: inline-block ; position: relative ; transition: all 0.05s ease-in-out 0s ; margin-left: 0.2em ; font-size: 12px&quot;&gt;&lt;/div&gt;&lt;div class=&quot;lr-fy-ecl lr-fy-eq-elem&quot; style=&quot;display: inline-block ; position: relative ; transition: all 0.05s ease-in-out 0s ; font-style: italic ; font-size: 12px&quot;&gt;Ï€&lt;/div&gt;&lt;/div&gt;&lt;div class=&quot;lr-fy-eq-elem lr-fy-eq-add&quot; style=&quot;display: inline-block ; position: relative ; transition: all 0.05s ease-in-out 0s ; color: rgb(32 , 33 , 36) ; font-family: &amp;#34;stixgeneral&amp;#34; , &amp;#34;georgia&amp;#34; ; background-color: rgb(255 , 255 , 255) ; margin-left: 0.2em&quot;&gt;&lt;/div&gt;&lt;div class=&quot;lr-fy-eq-elem&quot; style=&quot;display: inline-block ; position: relative ; transition: all 0.05s ease-in-out 0s ; color: rgb(32 , 33 , 36) ; font-family: &amp;#34;stixgeneral&amp;#34; , &amp;#34;georgia&amp;#34; ; background-color: rgb(255 , 255 , 255)&quot;&gt;&lt;div class=&quot;lr-fy-el lr-fy-eq-elem&quot; style=&quot;display: inline-block ; position: relative ; transition: all 0.05s ease-in-out 0s ; margin: -4px ; padding: 4px ; font-style: italic ; cursor: pointer ; font-size: 12px&quot;&gt;r&lt;/div&gt;&lt;div class=&quot;lr-fy-ecv lr-fy-eq-elem&quot; style=&quot;display: inline-block ; position: relative ; transition: all 0.05s ease-in-out 0s ; font-family: &amp;#34;stixgeneral&amp;#34; , &amp;#34;times&amp;#34; , &amp;#34;times new roman&amp;#34; , serif ; margin-left: 0.15em ; vertical-align: top ; font-size: 12px&quot;&gt;2&lt;/div&gt;&lt;/div&gt;&lt;/font&gt;" style="rounded=0;whiteSpace=wrap;html=1;" vertex="1" parent="1">
                    <mxGeometry x="340" y="280" width="120" height="60" as="geometry"/>
                </mxCell>
            </root>
        </mxGraphModel>
    </diagram>
</mxfile>